<?xml version="1.0" encoding="UTF-8" standalone="no"?>
<!DOCTYPE svg PUBLIC "-//W3C//DTD SVG 1.1//EN" "http://www.w3.org/Graphics/SVG/1.1/DTD/svg11.dtd">
<svg xmlns="http://www.w3.org/2000/svg" version="1.1" viewBox="0.00 0.00 250.00 250.00">
<g stroke-width="2.00" fill="none" stroke-linecap="butt">
<path stroke="#a8c4f2" vector-effect="non-scaling-stroke" d="
  M 20.84 126.09
  Q 19.70 132.80 20.29 139.75"
/>
<path stroke="#b8ebf2" vector-effect="non-scaling-stroke" d="
  M 20.29 139.75
  L 121.81 224.19
  Q 122.20 224.51 122.58 224.19
  L 223.62 140.06"
/>
<path stroke="#a8c4f2" vector-effect="non-scaling-stroke" d="
  M 223.62 140.06
  Q 224.75 132.01 223.24 124.13"
/>
<path stroke="#b8ebf2" vector-effect="non-scaling-stroke" d="
  M 223.24 124.13
  Q 224.24 120.45 224.24 115.25
  Q 224.27 80.28 224.23 44.81
  A 0.70 0.70 0.0 0 0 223.05 44.31
  L 194.71 71.00"
/>
<path stroke="#a8c4f2" vector-effect="non-scaling-stroke" d="
  M 194.71 71.00
  L 193.93 71.44"
/>
<path stroke="#dccfff" vector-effect="non-scaling-stroke" d="
  M 193.93 71.44
  C 154.06 37.01 90.29 37.44 50.25 71.29"
/>
<path stroke="#b8ebf2" vector-effect="non-scaling-stroke" d="
  M 50.25 71.29
  Q 49.34 70.95 48.94 70.56
  Q 34.88 56.99 20.96 44.16
  A 0.56 0.55 -68.7 0 0 20.03 44.57
  Q 19.96 81.38 19.99 117.94
  Q 20.00 121.91 20.84 126.09"
/>
<path stroke="#94bbf2" vector-effect="non-scaling-stroke" d="
  M 50.25 71.29
  L 50.25 71.96"
/>
<path stroke="#61b0e4" vector-effect="non-scaling-stroke" d="
  M 50.25 71.96
  Q 49.16 72.28 48.33 73.08
  Q 25.78 94.91 20.84 126.09"
/>
<path stroke="#8594f2" vector-effect="non-scaling-stroke" d="
  M 193.93 71.44
  L 122.69 138.53
  A 0.90 0.89 -44.8 0 1 121.46 138.53
  L 51.22 72.54
  Q 50.99 72.32 50.69 72.22
  Q 50.43 72.14 50.25 71.96"
/>
<path stroke="#61b0e4" vector-effect="non-scaling-stroke" d="
  M 223.62 140.06
  Q 220.29 139.23 217.75 139.23
  Q 120.63 139.27 23.50 139.31
  Q 21.87 139.31 20.29 139.75"
/>
<path stroke="#61b0e4" vector-effect="non-scaling-stroke" d="
  M 223.24 124.13
  Q 217.39 93.47 194.90 72.03
  Q 194.68 71.82 194.69 71.52
  L 194.71 71.00"
/>
<path stroke="#3980a5" vector-effect="non-scaling-stroke" d="
  M 141.41 167.07
  A 0.32 0.32 0.0 0 0 141.21 166.50
  L 103.03 166.50
  A 0.32 0.32 0.0 0 0 102.83 167.07
  L 121.92 182.97
  A 0.32 0.32 0.0 0 0 122.32 182.97
  L 141.41 167.07"
/>
</g>
<path fill="#ffffff" d="
  M 0.00 0.00
  L 250.00 0.00
  L 250.00 250.00
  L 0.00 250.00
  L 0.00 0.00
  Z
  M 20.84 126.09
  Q 19.70 132.80 20.29 139.75
  L 121.81 224.19
  Q 122.20 224.51 122.58 224.19
  L 223.62 140.06
  Q 224.75 132.01 223.24 124.13
  Q 224.24 120.45 224.24 115.25
  Q 224.27 80.28 224.23 44.81
  A 0.70 0.70 0.0 0 0 223.05 44.31
  L 194.71 71.00
  L 193.93 71.44
  C 154.06 37.01 90.29 37.44 50.25 71.29
  Q 49.34 70.95 48.94 70.56
  Q 34.88 56.99 20.96 44.16
  A 0.56 0.55 -68.7 0 0 20.03 44.57
  Q 19.96 81.38 19.99 117.94
  Q 20.00 121.91 20.84 126.09
  Z"
/>
<path fill="#70d7e4" d="
  M 50.25 71.29
  L 50.25 71.96
  Q 49.16 72.28 48.33 73.08
  Q 25.78 94.91 20.84 126.09
  Q 20.00 121.91 19.99 117.94
  Q 19.96 81.38 20.03 44.57
  A 0.56 0.55 -68.7 0 1 20.96 44.16
  Q 34.88 56.99 48.94 70.56
  Q 49.34 70.95 50.25 71.29
  Z"
/>
<path fill="#70d7e4" d="
  M 223.24 124.13
  Q 217.39 93.47 194.90 72.03
  Q 194.68 71.82 194.69 71.52
  L 194.71 71.00
  L 223.05 44.31
  A 0.70 0.70 0.0 0 1 224.23 44.81
  Q 224.27 80.28 224.24 115.25
  Q 224.24 120.45 223.24 124.13
  Z"
/>
<path fill="#b89fff" d="
  M 193.93 71.44
  L 122.69 138.53
  A 0.90 0.89 -44.8 0 1 121.46 138.53
  L 51.22 72.54
  Q 50.99 72.32 50.69 72.22
  Q 50.43 72.14 50.25 71.96
  L 50.25 71.29
  C 90.29 37.44 154.06 37.01 193.93 71.44
  Z"
/>
<path fill="#5188e4" d="
  M 194.71 71.00
  L 194.69 71.52
  Q 194.68 71.82 194.90 72.03
  Q 217.39 93.47 223.24 124.13
  Q 224.75 132.01 223.62 140.06
  Q 220.29 139.23 217.75 139.23
  Q 120.63 139.27 23.50 139.31
  Q 21.87 139.31 20.29 139.75
  Q 19.70 132.80 20.84 126.09
  Q 25.78 94.91 48.33 73.08
  Q 49.16 72.28 50.25 71.96
  Q 50.43 72.14 50.69 72.22
  Q 50.99 72.32 51.22 72.54
  L 121.46 138.53
  A 0.90 0.89 -44.8 0 0 122.69 138.53
  L 193.93 71.44
  L 194.71 71.00
  Z"
/>
<path fill="#70d7e4" d="
  M 223.62 140.06
  L 122.58 224.19
  Q 122.20 224.51 121.81 224.19
  L 20.29 139.75
  Q 21.87 139.31 23.50 139.31
  Q 120.63 139.27 217.75 139.23
  Q 220.29 139.23 223.62 140.06
  Z
  M 141.41 167.07
  A 0.32 0.32 0.0 0 0 141.21 166.50
  L 103.03 166.50
  A 0.32 0.32 0.0 0 0 102.83 167.07
  L 121.92 182.97
  A 0.32 0.32 0.0 0 0 122.32 182.97
  L 141.41 167.07
  Z"
/>
<path fill="#012866" d="
  M 141.41 167.07
  L 122.32 182.97
  A 0.32 0.32 0.0 0 1 121.92 182.97
  L 102.83 167.07
  A 0.32 0.32 0.0 0 1 103.03 166.50
  L 141.21 166.50
  A 0.32 0.32 0.0 0 1 141.41 167.07
  Z"
/>
</svg>
